<svg id="Camada_1" data-name="Camada 1" xmlns="http://www.w3.org/2000/svg" viewBox="0 0 150 150"><defs><style>.cls-1{fill:#ffcd00;}.cls-2,.cls-3,.cls-4{fill:#1d1d1b;}.cls-3,.cls-4{font-size:27.32px;}.cls-3{font-family:ArialRoundedMTBold, Arial Rounded MT Bold;}.cls-4{font-family:Dosis-Regular, Dosis;}</style></defs><title>Cultura</title><circle class="cls-1" cx="75" cy="75" r="72.38"/><path class="cls-2" d="M57.84,87.46a20.27,20.27,0,0,1-15.91-8.35,27.64,27.64,0,0,1-5.37-16.79V44.5a26.2,26.2,0,0,1,0-3.07c.51-4.34,6.34-2.12,9-1.64,3.4.62,6.83,1.23,10.28,1.53a36.74,36.74,0,0,0,8.5-.56c3.53-.52,7-1.18,10.54-1.87,2.58-.51,4.23,1,4.23,3.51V60.49c0,4.92-.51,9.7-2.68,14.21-2.77,5.75-7.7,10.55-14,12.17a19.27,19.27,0,0,1-4.6.59,1,1,0,0,0,0,2,22.33,22.33,0,0,0,17.28-8.87,29.53,29.53,0,0,0,6-18.18c0-4.06,0-8.12,0-12.18V43.61c0-1.57.11-3.13-.78-4.53-2.2-3.47-6.17-2.06-9.45-1.45a111.31,111.31,0,0,1-11.18,1.7,39.72,39.72,0,0,1-9.48-.75c-2-.32-4-.68-6-1.06-1.68-.31-3.58-1-5.3-.75A5.16,5.16,0,0,0,34.56,42c0,1.58,0,3.15,0,4.73V60.94A32.86,32.86,0,0,0,38,76.62c3.14,5.92,8.58,10.75,15.19,12.29a20.5,20.5,0,0,0,4.68.55A1,1,0,0,0,57.84,87.46Z"/><path class="cls-2" d="M80.14,63.67c5.29,1,10.55,1.93,15.93,1.27,2.68-.33,5.35-.77,8-1.25,1.34-.24,2.69-.5,4-.76s2.52-.54,3.7.19c2.19,1.35,1.63,4.53,1.63,6.73v10.4c0,2.07,0,4.13,0,6.2a27.9,27.9,0,0,1-4,14.44c-5,8.11-14.63,12.63-23.85,9.2A22.3,22.3,0,0,1,74.1,99.58c-2.52-4.7-3.21-9.75-3.21-15a1,1,0,0,0-2,0,34.13,34.13,0,0,0,2.59,14.19,25.45,25.45,0,0,0,9.73,11.37,21.25,21.25,0,0,0,26.54-3.75,27.88,27.88,0,0,0,7.08-13.84,46.82,46.82,0,0,0,.61-9.23V72.23a58.48,58.48,0,0,0,0-6.88,5.45,5.45,0,0,0-5.53-4.73,32,32,0,0,0-4.44.79c-1.76.33-3.53.65-5.31.94a46.36,46.36,0,0,1-8.22.89,70.83,70.83,0,0,1-11.22-1.5c-1.26-.23-1.8,1.7-.53,1.93Z"/><text class="cls-3" transform="translate(64.21 77.95) rotate(-90)">(</text><text class="cls-4" transform="translate(44.32 71.96)">^</text><text class="cls-4" transform="translate(87.33 64.39) rotate(180)">^</text><text class="cls-3" transform="translate(85.72 92.92) rotate(90)">(</text><text class="cls-4" transform="translate(105.78 64.39) rotate(180)">^</text><text class="cls-4" transform="translate(62.62 71.96)">^</text></svg>